<mxfile host="app.diagrams.net" modified="2023-08-17T18:39:21.388Z" agent="Mozilla/5.0 (Windows NT 10.0; Win64; x64) AppleWebKit/537.36 (KHTML, like Gecko) Chrome/115.0.0.0 Safari/537.36 Edg/115.0.1901.203" etag="wRZShthvqlarzvSEwcCS" version="21.2.3" type="github">
  <diagram id="C5RBs43oDa-KdzZeNtuy" name="Page-1">
    <mxGraphModel dx="919" dy="1673" grid="1" gridSize="10" guides="1" tooltips="1" connect="1" arrows="1" fold="1" page="1" pageScale="1" pageWidth="827" pageHeight="1169" math="0" shadow="0">
      <root>
        <mxCell id="WIyWlLk6GJQsqaUBKTNV-0" />
        <mxCell id="WIyWlLk6GJQsqaUBKTNV-1" parent="WIyWlLk6GJQsqaUBKTNV-0" />
        <mxCell id="WIyWlLk6GJQsqaUBKTNV-3" value="Persona" style="rounded=1;whiteSpace=wrap;html=1;fontSize=12;glass=0;strokeWidth=1;shadow=0;" parent="WIyWlLk6GJQsqaUBKTNV-1" vertex="1">
          <mxGeometry x="160" y="20" width="120" height="100" as="geometry" />
        </mxCell>
        <mxCell id="WIyWlLk6GJQsqaUBKTNV-6" value="Hace" style="rhombus;whiteSpace=wrap;html=1;shadow=0;fontFamily=Helvetica;fontSize=12;align=center;strokeWidth=1;spacing=6;spacingTop=-4;" parent="WIyWlLk6GJQsqaUBKTNV-1" vertex="1">
          <mxGeometry x="170" y="280" width="100" height="80" as="geometry" />
        </mxCell>
        <mxCell id="WIyWlLk6GJQsqaUBKTNV-11" value="Actividad" style="rounded=1;whiteSpace=wrap;html=1;fontSize=12;glass=0;strokeWidth=1;shadow=0;" parent="WIyWlLk6GJQsqaUBKTNV-1" vertex="1">
          <mxGeometry x="160" y="440" width="120" height="40" as="geometry" />
        </mxCell>
        <mxCell id="u4QwFrwp7-um6EivLpGo-8" value="" style="endArrow=oval;html=1;rounded=0;endFill=0;" edge="1" parent="WIyWlLk6GJQsqaUBKTNV-1">
          <mxGeometry width="50" height="50" relative="1" as="geometry">
            <mxPoint x="280" y="110" as="sourcePoint" />
            <mxPoint x="380" y="110" as="targetPoint" />
          </mxGeometry>
        </mxCell>
        <mxCell id="u4QwFrwp7-um6EivLpGo-9" value="&lt;br style=&quot;font-size: 9px;&quot;&gt;&amp;nbsp; &amp;nbsp; &amp;nbsp; Nombre" style="text;html=1;align=center;verticalAlign=middle;resizable=0;points=[];autosize=1;strokeColor=none;fillColor=none;fontSize=9;" vertex="1" parent="WIyWlLk6GJQsqaUBKTNV-1">
          <mxGeometry x="370" y="80" width="70" height="40" as="geometry" />
        </mxCell>
        <mxCell id="u4QwFrwp7-um6EivLpGo-10" value="" style="endArrow=oval;html=1;rounded=0;endFill=0;" edge="1" parent="WIyWlLk6GJQsqaUBKTNV-1">
          <mxGeometry width="50" height="50" relative="1" as="geometry">
            <mxPoint x="280" y="89.25999999999999" as="sourcePoint" />
            <mxPoint x="380" y="89.25999999999999" as="targetPoint" />
          </mxGeometry>
        </mxCell>
        <mxCell id="u4QwFrwp7-um6EivLpGo-11" value="Apellido" style="text;html=1;align=center;verticalAlign=middle;resizable=0;points=[];autosize=1;strokeColor=none;fillColor=none;fontSize=8;" vertex="1" parent="WIyWlLk6GJQsqaUBKTNV-1">
          <mxGeometry x="389" y="80" width="50" height="20" as="geometry" />
        </mxCell>
        <mxCell id="u4QwFrwp7-um6EivLpGo-12" value="" style="endArrow=oval;html=1;rounded=0;endFill=1;" edge="1" parent="WIyWlLk6GJQsqaUBKTNV-1">
          <mxGeometry width="50" height="50" relative="1" as="geometry">
            <mxPoint x="280" y="60" as="sourcePoint" />
            <mxPoint x="380" y="60" as="targetPoint" />
            <Array as="points">
              <mxPoint x="340" y="60" />
            </Array>
          </mxGeometry>
        </mxCell>
        <mxCell id="u4QwFrwp7-um6EivLpGo-14" value="Dni" style="text;html=1;align=center;verticalAlign=middle;resizable=0;points=[];autosize=1;strokeColor=none;fillColor=none;fontSize=9;" vertex="1" parent="WIyWlLk6GJQsqaUBKTNV-1">
          <mxGeometry x="389" y="50" width="40" height="20" as="geometry" />
        </mxCell>
        <mxCell id="u4QwFrwp7-um6EivLpGo-15" value="" style="endArrow=oval;html=1;rounded=0;endFill=1;" edge="1" parent="WIyWlLk6GJQsqaUBKTNV-1">
          <mxGeometry width="50" height="50" relative="1" as="geometry">
            <mxPoint x="280" y="70" as="sourcePoint" />
            <mxPoint x="380" y="70" as="targetPoint" />
            <Array as="points">
              <mxPoint x="340" y="70" />
            </Array>
          </mxGeometry>
        </mxCell>
        <mxCell id="u4QwFrwp7-um6EivLpGo-16" value="Cuit" style="text;html=1;align=center;verticalAlign=middle;resizable=0;points=[];autosize=1;strokeColor=none;fillColor=none;fontSize=9;" vertex="1" parent="WIyWlLk6GJQsqaUBKTNV-1">
          <mxGeometry x="389" y="60" width="40" height="20" as="geometry" />
        </mxCell>
        <mxCell id="u4QwFrwp7-um6EivLpGo-17" value="" style="endArrow=oval;html=1;rounded=0;endFill=0;" edge="1" parent="WIyWlLk6GJQsqaUBKTNV-1">
          <mxGeometry width="50" height="50" relative="1" as="geometry">
            <mxPoint x="280" y="50" as="sourcePoint" />
            <mxPoint x="380" y="50" as="targetPoint" />
          </mxGeometry>
        </mxCell>
        <mxCell id="u4QwFrwp7-um6EivLpGo-18" value="TelÃ©fonos (1,n)" style="text;html=1;align=center;verticalAlign=middle;resizable=0;points=[];autosize=1;strokeColor=none;fillColor=none;fontSize=9;" vertex="1" parent="WIyWlLk6GJQsqaUBKTNV-1">
          <mxGeometry x="374" y="40" width="80" height="20" as="geometry" />
        </mxCell>
        <mxCell id="u4QwFrwp7-um6EivLpGo-19" value="Domicilio" style="ellipse;whiteSpace=wrap;html=1;" vertex="1" parent="WIyWlLk6GJQsqaUBKTNV-1">
          <mxGeometry x="384" y="-10" width="70" height="50" as="geometry" />
        </mxCell>
        <mxCell id="u4QwFrwp7-um6EivLpGo-21" value="" style="endArrow=none;html=1;rounded=0;" edge="1" parent="WIyWlLk6GJQsqaUBKTNV-1">
          <mxGeometry width="50" height="50" relative="1" as="geometry">
            <mxPoint x="280" y="30" as="sourcePoint" />
            <mxPoint x="370" y="30" as="targetPoint" />
            <Array as="points">
              <mxPoint x="390" y="30" />
            </Array>
          </mxGeometry>
        </mxCell>
        <mxCell id="u4QwFrwp7-um6EivLpGo-22" value="" style="endArrow=oval;html=1;rounded=0;endFill=0;" edge="1" parent="WIyWlLk6GJQsqaUBKTNV-1">
          <mxGeometry width="50" height="50" relative="1" as="geometry">
            <mxPoint x="450" y="-1" as="sourcePoint" />
            <mxPoint x="550" y="-1" as="targetPoint" />
            <Array as="points">
              <mxPoint x="480" y="-1" />
            </Array>
          </mxGeometry>
        </mxCell>
        <mxCell id="u4QwFrwp7-um6EivLpGo-23" value="piso(0,1)" style="text;html=1;align=center;verticalAlign=middle;resizable=0;points=[];autosize=1;strokeColor=none;fillColor=none;fontSize=9;" vertex="1" parent="WIyWlLk6GJQsqaUBKTNV-1">
          <mxGeometry x="550" y="-10" width="60" height="20" as="geometry" />
        </mxCell>
        <mxCell id="u4QwFrwp7-um6EivLpGo-24" value="" style="endArrow=oval;html=1;rounded=0;endFill=0;" edge="1" parent="WIyWlLk6GJQsqaUBKTNV-1">
          <mxGeometry width="50" height="50" relative="1" as="geometry">
            <mxPoint x="450" y="20" as="sourcePoint" />
            <mxPoint x="550" y="20" as="targetPoint" />
          </mxGeometry>
        </mxCell>
        <mxCell id="u4QwFrwp7-um6EivLpGo-25" value="numero" style="text;html=1;align=center;verticalAlign=middle;resizable=0;points=[];autosize=1;strokeColor=none;fillColor=none;fontSize=9;" vertex="1" parent="WIyWlLk6GJQsqaUBKTNV-1">
          <mxGeometry x="555" y="10" width="50" height="20" as="geometry" />
        </mxCell>
        <mxCell id="u4QwFrwp7-um6EivLpGo-26" value="" style="endArrow=oval;html=1;rounded=0;endFill=0;" edge="1" parent="WIyWlLk6GJQsqaUBKTNV-1">
          <mxGeometry width="50" height="50" relative="1" as="geometry">
            <mxPoint x="440" y="39.260000000000005" as="sourcePoint" />
            <mxPoint x="540" y="39.260000000000005" as="targetPoint" />
          </mxGeometry>
        </mxCell>
        <mxCell id="u4QwFrwp7-um6EivLpGo-27" value="calle" style="text;html=1;align=center;verticalAlign=middle;resizable=0;points=[];autosize=1;strokeColor=none;fillColor=none;fontSize=9;" vertex="1" parent="WIyWlLk6GJQsqaUBKTNV-1">
          <mxGeometry x="540" y="30" width="40" height="20" as="geometry" />
        </mxCell>
        <mxCell id="u4QwFrwp7-um6EivLpGo-28" value="" style="endArrow=oval;html=1;rounded=0;endFill=0;" edge="1" parent="WIyWlLk6GJQsqaUBKTNV-1">
          <mxGeometry width="50" height="50" relative="1" as="geometry">
            <mxPoint x="429" y="-10" as="sourcePoint" />
            <mxPoint x="529" y="-10" as="targetPoint" />
            <Array as="points">
              <mxPoint x="519" y="-10" />
            </Array>
          </mxGeometry>
        </mxCell>
        <mxCell id="u4QwFrwp7-um6EivLpGo-29" value="depto (0,1)" style="text;html=1;align=center;verticalAlign=middle;resizable=0;points=[];autosize=1;strokeColor=none;fillColor=none;fontSize=9;" vertex="1" parent="WIyWlLk6GJQsqaUBKTNV-1">
          <mxGeometry x="525" y="-20" width="70" height="20" as="geometry" />
        </mxCell>
        <mxCell id="u4QwFrwp7-um6EivLpGo-30" value="" style="endArrow=none;html=1;rounded=0;" edge="1" parent="WIyWlLk6GJQsqaUBKTNV-1">
          <mxGeometry width="50" height="50" relative="1" as="geometry">
            <mxPoint x="219.67" y="280" as="sourcePoint" />
            <mxPoint x="219.67" y="150" as="targetPoint" />
            <Array as="points">
              <mxPoint x="219.67" y="150" />
              <mxPoint x="220" y="120" />
            </Array>
          </mxGeometry>
        </mxCell>
        <mxCell id="u4QwFrwp7-um6EivLpGo-31" value="" style="endArrow=none;html=1;rounded=0;" edge="1" parent="WIyWlLk6GJQsqaUBKTNV-1">
          <mxGeometry width="50" height="50" relative="1" as="geometry">
            <mxPoint x="219.67000000000002" y="440" as="sourcePoint" />
            <mxPoint x="219.67000000000002" y="360" as="targetPoint" />
            <Array as="points">
              <mxPoint x="219.67000000000002" y="440" />
            </Array>
          </mxGeometry>
        </mxCell>
      </root>
    </mxGraphModel>
  </diagram>
</mxfile>
